<?xml version="1.0" encoding="utf-8"?>
<!-- Generator: Adobe Illustrator 24.1.2, SVG Export Plug-In . SVG Version: 6.00 Build 0)  -->
<svg version="1.1" id="Layer_1" xmlns="http://www.w3.org/2000/svg" xmlns:xlink="http://www.w3.org/1999/xlink" x="0px" y="0px"
	 viewBox="0 0 95.21 95.21" style="enable-background:new 0 0 95.21 95.21;" xml:space="preserve">
<style type="text/css">
	.st0{fill:#3B82BF;}
	.st1{fill:#FFFFFF;}
	.st2{clip-path:url(#SVGID_2_);}
	.st3{clip-path:url(#SVGID_4_);}
</style>
<g>
	<circle class="st0" cx="113.93" cy="-98.42" r="47.6"/>
	<g>
		<g>
			<path class="st1" d="M125.09-65.88h-22.35c-1.64,0-2.97-1.33-2.97-2.97v-39.36c0-1.64,1.33-2.97,2.97-2.97h22.35
				c1.64,0,2.97,1.33,2.97,2.97v39.36C128.06-67.21,126.72-65.88,125.09-65.88z M102.73-110.19c-1.09,0-1.97,0.88-1.97,1.97v39.36
				c0,1.09,0.88,1.97,1.97,1.97h22.35c1.09,0,1.97-0.88,1.97-1.97v-39.36c0-1.09-0.88-1.97-1.97-1.97H102.73z"/>
		</g>
		<g>
			<path class="st1" d="M124.1-111.08h-1c0-3.87-4.17-7.02-9.29-7.02c-5.12,0-9.29,3.15-9.29,7.02h-1c0-4.42,4.62-8.02,10.29-8.02
				C119.49-119.1,124.1-115.5,124.1-111.08z"/>
		</g>
		<g>
			<g>
				<rect x="111.17" y="-127.89" class="st1" width="1" height="9.63"/>
			</g>
			<g>
				<rect x="115.26" y="-127.89" class="st1" width="1" height="9.63"/>
			</g>
		</g>
		<g>
			<polygon class="st1" points="122.12,-126.41 102.63,-126.41 102.63,-130.66 122.12,-133.14 			"/>
		</g>
		<g>
			<circle class="st1" cx="103.48" cy="-92.59" r="0.94"/>
		</g>
		<g>
			<circle class="st1" cx="110.45" cy="-92.59" r="0.94"/>
		</g>
		<g>
			<circle class="st1" cx="117.42" cy="-92.59" r="0.94"/>
		</g>
		<g>
			<circle class="st1" cx="124.39" cy="-92.59" r="0.94"/>
		</g>
		<g>
			<circle class="st1" cx="103.48" cy="-85.42" r="0.94"/>
		</g>
		<g>
			<circle class="st1" cx="110.45" cy="-85.42" r="0.94"/>
		</g>
		<g>
			<circle class="st1" cx="117.42" cy="-85.42" r="0.94"/>
		</g>
		<g>
			<circle class="st1" cx="124.39" cy="-85.42" r="0.94"/>
		</g>
		<g>
			<circle class="st1" cx="103.48" cy="-78.25" r="0.94"/>
		</g>
		<g>
			<circle class="st1" cx="110.45" cy="-78.25" r="0.94"/>
		</g>
		<g>
			<circle class="st1" cx="117.42" cy="-78.25" r="0.94"/>
		</g>
		<g>
			<circle class="st1" cx="124.39" cy="-78.25" r="0.94"/>
		</g>
		<g>
			<circle class="st1" cx="103.48" cy="-71.08" r="0.94"/>
		</g>
		<g>
			<circle class="st1" cx="110.45" cy="-71.08" r="0.94"/>
		</g>
		<g>
			<circle class="st1" cx="117.42" cy="-71.08" r="0.94"/>
		</g>
		<g>
			<circle class="st1" cx="124.39" cy="-71.08" r="0.94"/>
		</g>
		<g>
			<circle class="st1" cx="106.96" cy="-88.83" r="0.94"/>
		</g>
		<g>
			<circle class="st1" cx="113.93" cy="-88.83" r="0.94"/>
		</g>
		<g>
			<circle class="st1" cx="120.91" cy="-88.83" r="0.94"/>
		</g>
		<g>
			<circle class="st1" cx="106.96" cy="-81.66" r="0.94"/>
		</g>
		<g>
			<circle class="st1" cx="113.93" cy="-81.66" r="0.94"/>
		</g>
		<g>
			<circle class="st1" cx="120.91" cy="-81.66" r="0.94"/>
		</g>
		<g>
			<circle class="st1" cx="106.96" cy="-74.49" r="0.94"/>
		</g>
		<g>
			<circle class="st1" cx="113.93" cy="-74.49" r="0.94"/>
		</g>
		<g>
			<circle class="st1" cx="120.91" cy="-74.49" r="0.94"/>
		</g>
		<g>
			<circle class="st1" cx="106.96" cy="-67.32" r="0.94"/>
		</g>
		<g>
			<circle class="st1" cx="113.93" cy="-67.32" r="0.94"/>
		</g>
		<g>
			<circle class="st1" cx="120.91" cy="-67.32" r="0.94"/>
		</g>
	</g>
</g>
<g>
	<circle class="st0" cx="216.49" cy="-94.52" r="47.6"/>
	<g>
		<path class="st1" d="M233.06-81.61h-11.71l-0.03-0.53v-11.87h-23.64v-0.13c-3.6-0.13-6.94-1.62-9.44-4.24
			c-2.62-2.74-3.97-6.34-3.8-10.13c0.33-7.36,6.54-13.12,14.15-13.12h12.13v-11.87h1v12.84l-0.53,0.03h-12.6
			c-6.95,0-12.85,5.46-13.15,12.17c-0.16,3.52,1.09,6.86,3.52,9.4c2.43,2.54,5.7,3.94,9.22,3.94h0.5v0.12h23.6l0.03,0.53v11.87
			h10.27v-12.7c0-4.75-3.37-8.92-8.01-9.91l-26.7,0.01c-1.43,0-2.65-1.05-2.76-2.39c-0.06-0.73,0.18-1.46,0.68-2
			c0.5-0.54,1.2-0.85,1.93-0.85h16.35c4.55-0.98,7.91-5.15,7.91-9.9v-13.17h1v13.17c0,5.22-3.7,9.8-8.8,10.88l-0.11,0.01h-16.35
			c-0.45,0-0.89,0.19-1.19,0.53c-0.31,0.34-0.46,0.78-0.42,1.24c0.07,0.83,0.85,1.47,1.77,1.47l26.91,0.01
			c5.1,1.09,8.8,5.66,8.8,10.88v13.67L233.06-81.61z"/>
	</g>
	<g>
		<rect x="219.81" y="-83.76" class="st1" width="15.69" height="5.6"/>
	</g>
	<g>
		<path class="st1" d="M240.51-60.94c-2.65,0-3.58-1.21-4.39-2.28c-0.79-1.03-1.47-1.91-3.71-1.87c-1.64,0.03-2.15,0.83-2.8,1.84
			c-0.69,1.08-1.47,2.31-3.74,2.31c-2.2,0-3.28-1.19-4.23-2.24c-0.93-1.03-1.73-1.91-3.49-1.91c-1.77,0-2.47,0.9-3.27,1.94
			c-0.8,1.04-1.71,2.21-3.75,2.21c-1.98,0-2.72-1.11-3.38-2.1c-0.71-1.06-1.38-2.06-3.64-2.06c-2.21,0-3.08,0.97-3.99,2
			c-0.9,1.01-1.92,2.16-4.22,2.16c-2.45,0-3.34-1.27-4.12-2.39c-0.69-0.99-1.24-1.77-2.8-1.77v-1c2.08,0,2.9,1.17,3.62,2.19
			c0.74,1.05,1.37,1.96,3.3,1.96c1.84,0,2.6-0.85,3.47-1.82c0.97-1.09,2.08-2.33,4.74-2.33c2.79,0,3.72,1.39,4.47,2.5
			c0.62,0.92,1.11,1.65,2.55,1.65c1.55,0,2.2-0.84,2.96-1.82c0.85-1.09,1.8-2.33,4.06-2.33c2.2,0,3.28,1.19,4.23,2.24
			c0.93,1.03,1.73,1.91,3.49,1.91c1.72,0,2.24-0.81,2.9-1.85c0.68-1.06,1.44-2.26,3.62-2.31c2.74-0.04,3.69,1.18,4.52,2.26
			c0.78,1.01,1.44,1.89,3.6,1.89c2.18,0,2.78-0.97,3.48-2.09c0.71-1.15,1.52-2.46,4.04-2.46v1c-1.96,0-2.5,0.88-3.19,1.98
			C244.1-62.3,243.25-60.94,240.51-60.94z"/>
	</g>
	<g>
		<defs>
			<path id="SVGID_1_" d="M222.5-133.51v13.17c0,5.11-3.6,9.37-8.41,10.39c0,0-0.01,0-0.01,0h-16.35c-1.23,0-2.22,1.05-2.11,2.31
				c0.1,1.12,1.14,1.93,2.26,1.93h26.8c0,0,0.01,0,0.01,0c4.8,1.02,8.41,5.29,8.41,10.39v13.17c0,0.02-0.02,0.03-0.03,0.03h-11.21
				c-0.02,0-0.03-0.02-0.03-0.03v-12.34c0-0.02-0.02-0.03-0.03-0.03h-23.6v-0.12c-7.52,0-13.58-6.27-13.24-13.86
				c0.32-7.15,6.49-12.64,13.65-12.64h12.6c0.02,0,0.03-0.02,0.03-0.03v-12.34H222.5z"/>
		</defs>
		<clipPath id="SVGID_2_">
			<use xlink:href="#SVGID_1_"  style="overflow:visible;"/>
		</clipPath>
		<g class="st2">
			<g>
				<circle class="st1" cx="182.85" cy="-141.49" r="0.94"/>
			</g>
			<g>
				<circle class="st1" cx="189.45" cy="-141.49" r="0.94"/>
			</g>
			<g>
				<circle class="st1" cx="189.45" cy="-134.89" r="0.94"/>
			</g>
			<g>
				<circle class="st1" cx="186.15" cy="-138.19" r="0.94"/>
			</g>
			<g>
				<circle class="st1" cx="182.85" cy="-134.89" r="0.94"/>
			</g>
			<g>
				<circle class="st1" cx="189.45" cy="-134.89" r="0.94"/>
			</g>
			<g>
				<circle class="st1" cx="186.15" cy="-131.6" r="0.94"/>
			</g>
			<g>
				<circle class="st1" cx="182.85" cy="-128.3" r="0.94"/>
			</g>
			<g>
				<circle class="st1" cx="189.45" cy="-128.3" r="0.94"/>
			</g>
			<g>
				<circle class="st1" cx="186.15" cy="-125" r="0.94"/>
			</g>
			<g>
				<circle class="st1" cx="182.85" cy="-121.71" r="0.94"/>
			</g>
			<g>
				<circle class="st1" cx="189.45" cy="-121.71" r="0.94"/>
			</g>
			<g>
				<circle class="st1" cx="186.15" cy="-118.41" r="0.94"/>
			</g>
			<g>
				<circle class="st1" cx="182.85" cy="-115.11" r="0.94"/>
			</g>
			<g>
				<circle class="st1" cx="189.45" cy="-115.11" r="0.94"/>
			</g>
			<g>
				<circle class="st1" cx="186.15" cy="-111.82" r="0.94"/>
			</g>
			<g>
				<circle class="st1" cx="182.85" cy="-108.52" r="0.94"/>
			</g>
			<g>
				<circle class="st1" cx="189.45" cy="-108.52" r="0.94"/>
			</g>
			<g>
				<circle class="st1" cx="186.15" cy="-105.22" r="0.94"/>
			</g>
			<g>
				<circle class="st1" cx="182.85" cy="-101.93" r="0.94"/>
			</g>
			<g>
				<circle class="st1" cx="189.45" cy="-101.93" r="0.94"/>
			</g>
			<g>
				<circle class="st1" cx="186.15" cy="-98.63" r="0.94"/>
			</g>
			<g>
				<circle class="st1" cx="182.85" cy="-95.33" r="0.94"/>
			</g>
			<g>
				<circle class="st1" cx="189.45" cy="-95.33" r="0.94"/>
			</g>
			<g>
				<circle class="st1" cx="186.15" cy="-92.04" r="0.94"/>
			</g>
			<g>
				<circle class="st1" cx="182.85" cy="-88.74" r="0.94"/>
			</g>
			<g>
				<circle class="st1" cx="189.45" cy="-88.74" r="0.94"/>
			</g>
			<g>
				<circle class="st1" cx="186.15" cy="-85.44" r="0.94"/>
			</g>
			<g>
				<circle class="st1" cx="182.85" cy="-82.15" r="0.94"/>
			</g>
			<g>
				<circle class="st1" cx="189.45" cy="-82.15" r="0.94"/>
			</g>
			<g>
				<circle class="st1" cx="186.15" cy="-78.85" r="0.94"/>
			</g>
			<g>
				<circle class="st1" cx="182.85" cy="-75.55" r="0.94"/>
			</g>
			<g>
				<circle class="st1" cx="189.45" cy="-75.55" r="0.94"/>
			</g>
			<g>
				<circle class="st1" cx="186.15" cy="-72.26" r="0.94"/>
			</g>
			<g>
				<circle class="st1" cx="182.85" cy="-68.96" r="0.94"/>
			</g>
			<g>
				<circle class="st1" cx="189.45" cy="-68.96" r="0.94"/>
			</g>
			<g>
				<circle class="st1" cx="186.15" cy="-65.66" r="0.94"/>
			</g>
			<g>
				<circle class="st1" cx="193.07" cy="-138.19" r="0.94"/>
			</g>
			<g>
				<circle class="st1" cx="199.66" cy="-138.19" r="0.94"/>
			</g>
			<g>
				<circle class="st1" cx="199.66" cy="-131.6" r="0.94"/>
			</g>
			<g>
				<circle class="st1" cx="196.37" cy="-134.89" r="0.94"/>
			</g>
			<g>
				<circle class="st1" cx="193.07" cy="-131.6" r="0.94"/>
			</g>
			<g>
				<circle class="st1" cx="199.66" cy="-131.6" r="0.94"/>
			</g>
			<g>
				<circle class="st1" cx="196.37" cy="-128.3" r="0.94"/>
			</g>
			<g>
				<circle class="st1" cx="193.07" cy="-125" r="0.94"/>
			</g>
			<g>
				<circle class="st1" cx="199.66" cy="-125" r="0.94"/>
			</g>
			<g>
				<circle class="st1" cx="196.37" cy="-121.71" r="0.94"/>
			</g>
			<g>
				<circle class="st1" cx="193.07" cy="-118.41" r="0.94"/>
			</g>
			<g>
				<circle class="st1" cx="199.66" cy="-118.41" r="0.94"/>
			</g>
			<g>
				<circle class="st1" cx="196.37" cy="-115.11" r="0.94"/>
			</g>
			<g>
				<circle class="st1" cx="193.07" cy="-111.82" r="0.94"/>
			</g>
			<g>
				<circle class="st1" cx="199.66" cy="-111.82" r="0.94"/>
			</g>
			<g>
				<circle class="st1" cx="196.37" cy="-108.52" r="0.94"/>
			</g>
			<g>
				<circle class="st1" cx="193.07" cy="-105.22" r="0.94"/>
			</g>
			<g>
				<circle class="st1" cx="199.66" cy="-105.22" r="0.94"/>
			</g>
			<g>
				<circle class="st1" cx="196.37" cy="-101.93" r="0.94"/>
			</g>
			<g>
				<circle class="st1" cx="193.07" cy="-98.63" r="0.94"/>
			</g>
			<g>
				<circle class="st1" cx="199.66" cy="-98.63" r="0.94"/>
			</g>
			<g>
				<circle class="st1" cx="196.37" cy="-95.33" r="0.94"/>
			</g>
			<g>
				<circle class="st1" cx="193.07" cy="-92.04" r="0.94"/>
			</g>
			<g>
				<circle class="st1" cx="199.66" cy="-92.04" r="0.94"/>
			</g>
			<g>
				<circle class="st1" cx="196.37" cy="-88.74" r="0.94"/>
			</g>
			<g>
				<circle class="st1" cx="193.07" cy="-85.44" r="0.94"/>
			</g>
			<g>
				<circle class="st1" cx="199.66" cy="-85.44" r="0.94"/>
			</g>
			<g>
				<circle class="st1" cx="196.37" cy="-82.15" r="0.94"/>
			</g>
			<g>
				<circle class="st1" cx="193.07" cy="-78.85" r="0.94"/>
			</g>
			<g>
				<circle class="st1" cx="199.66" cy="-78.85" r="0.94"/>
			</g>
			<g>
				<circle class="st1" cx="196.37" cy="-75.55" r="0.94"/>
			</g>
			<g>
				<circle class="st1" cx="193.07" cy="-72.26" r="0.94"/>
			</g>
			<g>
				<circle class="st1" cx="199.66" cy="-72.26" r="0.94"/>
			</g>
			<g>
				<circle class="st1" cx="196.37" cy="-68.96" r="0.94"/>
			</g>
			<g>
				<circle class="st1" cx="193.07" cy="-65.66" r="0.94"/>
			</g>
			<g>
				<circle class="st1" cx="199.66" cy="-65.66" r="0.94"/>
			</g>
			<g>
				<circle class="st1" cx="196.37" cy="-62.37" r="0.94"/>
			</g>
			<g>
				<circle class="st1" cx="203.29" cy="-134.89" r="0.94"/>
			</g>
			<g>
				<circle class="st1" cx="209.88" cy="-134.89" r="0.94"/>
			</g>
			<g>
				<circle class="st1" cx="209.88" cy="-128.3" r="0.94"/>
			</g>
			<g>
				<circle class="st1" cx="206.59" cy="-131.6" r="0.94"/>
			</g>
			<g>
				<circle class="st1" cx="203.29" cy="-128.3" r="0.94"/>
			</g>
			<g>
				<circle class="st1" cx="209.88" cy="-128.3" r="0.94"/>
			</g>
			<g>
				<circle class="st1" cx="206.59" cy="-125" r="0.94"/>
			</g>
			<g>
				<circle class="st1" cx="203.29" cy="-121.71" r="0.94"/>
			</g>
			<g>
				<circle class="st1" cx="209.88" cy="-121.71" r="0.94"/>
			</g>
			<g>
				<circle class="st1" cx="206.59" cy="-118.41" r="0.94"/>
			</g>
			<g>
				<circle class="st1" cx="203.29" cy="-115.11" r="0.94"/>
			</g>
			<g>
				<circle class="st1" cx="209.88" cy="-115.11" r="0.94"/>
			</g>
			<g>
				<circle class="st1" cx="206.59" cy="-111.82" r="0.94"/>
			</g>
			<g>
				<circle class="st1" cx="203.29" cy="-108.52" r="0.94"/>
			</g>
			<g>
				<circle class="st1" cx="209.88" cy="-108.52" r="0.94"/>
			</g>
			<g>
				<circle class="st1" cx="206.59" cy="-105.22" r="0.94"/>
			</g>
			<g>
				<circle class="st1" cx="203.29" cy="-101.93" r="0.94"/>
			</g>
			<g>
				<circle class="st1" cx="209.88" cy="-101.93" r="0.94"/>
			</g>
			<g>
				<circle class="st1" cx="206.59" cy="-98.63" r="0.94"/>
			</g>
			<g>
				<circle class="st1" cx="203.29" cy="-95.33" r="0.94"/>
			</g>
			<g>
				<circle class="st1" cx="209.88" cy="-95.33" r="0.94"/>
			</g>
			<g>
				<circle class="st1" cx="206.59" cy="-92.04" r="0.94"/>
			</g>
			<g>
				<circle class="st1" cx="203.29" cy="-88.74" r="0.94"/>
			</g>
			<g>
				<circle class="st1" cx="209.88" cy="-88.74" r="0.94"/>
			</g>
			<g>
				<circle class="st1" cx="206.59" cy="-85.44" r="0.94"/>
			</g>
			<g>
				<circle class="st1" cx="203.29" cy="-82.15" r="0.94"/>
			</g>
			<g>
				<circle class="st1" cx="209.88" cy="-82.15" r="0.94"/>
			</g>
			<g>
				<circle class="st1" cx="206.59" cy="-78.85" r="0.94"/>
			</g>
			<g>
				<circle class="st1" cx="203.29" cy="-75.55" r="0.94"/>
			</g>
			<g>
				<circle class="st1" cx="209.88" cy="-75.55" r="0.94"/>
			</g>
			<g>
				<circle class="st1" cx="206.59" cy="-72.26" r="0.94"/>
			</g>
			<g>
				<circle class="st1" cx="203.29" cy="-68.96" r="0.94"/>
			</g>
			<g>
				<circle class="st1" cx="209.88" cy="-68.96" r="0.94"/>
			</g>
			<g>
				<circle class="st1" cx="206.59" cy="-65.66" r="0.94"/>
			</g>
			<g>
				<circle class="st1" cx="203.29" cy="-62.37" r="0.94"/>
			</g>
			<g>
				<circle class="st1" cx="209.88" cy="-62.37" r="0.94"/>
			</g>
			<g>
				<circle class="st1" cx="206.59" cy="-59.07" r="0.94"/>
			</g>
			<g>
				<circle class="st1" cx="213.51" cy="-131.6" r="0.94"/>
			</g>
			<g>
				<circle class="st1" cx="220.1" cy="-131.6" r="0.94"/>
			</g>
			<g>
				<circle class="st1" cx="220.1" cy="-125" r="0.94"/>
			</g>
			<g>
				<circle class="st1" cx="216.81" cy="-128.3" r="0.94"/>
			</g>
			<g>
				<circle class="st1" cx="213.51" cy="-125" r="0.94"/>
			</g>
			<g>
				<circle class="st1" cx="220.1" cy="-125" r="0.94"/>
			</g>
			<g>
				<circle class="st1" cx="216.81" cy="-121.71" r="0.94"/>
			</g>
			<g>
				<circle class="st1" cx="213.51" cy="-118.41" r="0.94"/>
			</g>
			<g>
				<circle class="st1" cx="220.1" cy="-118.41" r="0.94"/>
			</g>
			<g>
				<circle class="st1" cx="216.81" cy="-115.11" r="0.94"/>
			</g>
			<g>
				<circle class="st1" cx="213.51" cy="-111.82" r="0.94"/>
			</g>
			<g>
				<circle class="st1" cx="220.1" cy="-111.82" r="0.94"/>
			</g>
			<g>
				<circle class="st1" cx="216.81" cy="-108.52" r="0.94"/>
			</g>
			<g>
				<circle class="st1" cx="213.51" cy="-105.22" r="0.94"/>
			</g>
			<g>
				<circle class="st1" cx="220.1" cy="-105.22" r="0.94"/>
			</g>
			<g>
				<circle class="st1" cx="216.81" cy="-101.93" r="0.94"/>
			</g>
			<g>
				<circle class="st1" cx="213.51" cy="-98.63" r="0.94"/>
			</g>
			<g>
				<circle class="st1" cx="220.1" cy="-98.63" r="0.94"/>
			</g>
			<g>
				<circle class="st1" cx="216.81" cy="-95.33" r="0.94"/>
			</g>
			<g>
				<circle class="st1" cx="213.51" cy="-92.04" r="0.94"/>
			</g>
			<g>
				<circle class="st1" cx="220.1" cy="-92.04" r="0.94"/>
			</g>
			<g>
				<circle class="st1" cx="216.81" cy="-88.74" r="0.94"/>
			</g>
			<g>
				<circle class="st1" cx="213.51" cy="-85.44" r="0.94"/>
			</g>
			<g>
				<circle class="st1" cx="220.1" cy="-85.44" r="0.94"/>
			</g>
			<g>
				<circle class="st1" cx="216.81" cy="-82.15" r="0.94"/>
			</g>
			<g>
				<circle class="st1" cx="213.51" cy="-78.85" r="0.94"/>
			</g>
			<g>
				<circle class="st1" cx="220.1" cy="-78.85" r="0.94"/>
			</g>
			<g>
				<circle class="st1" cx="216.81" cy="-75.55" r="0.94"/>
			</g>
			<g>
				<circle class="st1" cx="213.51" cy="-72.26" r="0.94"/>
			</g>
			<g>
				<circle class="st1" cx="220.1" cy="-72.26" r="0.94"/>
			</g>
			<g>
				<circle class="st1" cx="216.81" cy="-68.96" r="0.94"/>
			</g>
			<g>
				<circle class="st1" cx="213.51" cy="-65.66" r="0.94"/>
			</g>
			<g>
				<circle class="st1" cx="220.1" cy="-65.66" r="0.94"/>
			</g>
			<g>
				<circle class="st1" cx="216.81" cy="-62.37" r="0.94"/>
			</g>
			<g>
				<circle class="st1" cx="213.51" cy="-59.07" r="0.94"/>
			</g>
			<g>
				<circle class="st1" cx="220.1" cy="-59.07" r="0.94"/>
			</g>
			<g>
				<circle class="st1" cx="216.81" cy="-55.77" r="0.94"/>
			</g>
			<g>
				<circle class="st1" cx="223.73" cy="-128.3" r="0.94"/>
			</g>
			<g>
				<circle class="st1" cx="230.32" cy="-128.3" r="0.94"/>
			</g>
			<g>
				<circle class="st1" cx="230.32" cy="-121.71" r="0.94"/>
			</g>
			<g>
				<circle class="st1" cx="227.03" cy="-125" r="0.94"/>
			</g>
			<g>
				<circle class="st1" cx="223.73" cy="-121.71" r="0.94"/>
			</g>
			<g>
				<circle class="st1" cx="230.32" cy="-121.71" r="0.94"/>
			</g>
			<g>
				<circle class="st1" cx="227.03" cy="-118.41" r="0.94"/>
			</g>
			<g>
				<circle class="st1" cx="223.73" cy="-115.11" r="0.94"/>
			</g>
			<g>
				<circle class="st1" cx="230.32" cy="-115.11" r="0.94"/>
			</g>
			<g>
				<circle class="st1" cx="227.03" cy="-111.82" r="0.94"/>
			</g>
			<g>
				<circle class="st1" cx="223.73" cy="-108.52" r="0.94"/>
			</g>
			<g>
				<circle class="st1" cx="230.32" cy="-108.52" r="0.94"/>
			</g>
			<g>
				<circle class="st1" cx="227.03" cy="-105.22" r="0.94"/>
			</g>
			<g>
				<circle class="st1" cx="223.73" cy="-101.93" r="0.94"/>
			</g>
			<g>
				<circle class="st1" cx="230.32" cy="-101.93" r="0.94"/>
			</g>
			<g>
				<circle class="st1" cx="227.03" cy="-98.63" r="0.94"/>
			</g>
			<g>
				<circle class="st1" cx="223.73" cy="-95.33" r="0.94"/>
			</g>
			<g>
				<circle class="st1" cx="230.32" cy="-95.33" r="0.94"/>
			</g>
			<g>
				<circle class="st1" cx="227.03" cy="-92.04" r="0.94"/>
			</g>
			<g>
				<circle class="st1" cx="223.73" cy="-88.74" r="0.94"/>
			</g>
			<g>
				<circle class="st1" cx="230.32" cy="-88.74" r="0.94"/>
			</g>
			<g>
				<circle class="st1" cx="227.03" cy="-85.44" r="0.94"/>
			</g>
			<g>
				<circle class="st1" cx="223.73" cy="-82.15" r="0.94"/>
			</g>
			<g>
				<circle class="st1" cx="230.32" cy="-82.15" r="0.94"/>
			</g>
			<g>
				<circle class="st1" cx="227.03" cy="-78.85" r="0.94"/>
			</g>
			<g>
				<circle class="st1" cx="223.73" cy="-75.55" r="0.94"/>
			</g>
			<g>
				<circle class="st1" cx="230.32" cy="-75.55" r="0.94"/>
			</g>
			<g>
				<circle class="st1" cx="227.03" cy="-72.26" r="0.94"/>
			</g>
			<g>
				<circle class="st1" cx="223.73" cy="-68.96" r="0.94"/>
			</g>
			<g>
				<circle class="st1" cx="230.32" cy="-68.96" r="0.94"/>
			</g>
			<g>
				<circle class="st1" cx="227.03" cy="-65.66" r="0.94"/>
			</g>
			<g>
				<circle class="st1" cx="223.73" cy="-62.37" r="0.94"/>
			</g>
			<g>
				<circle class="st1" cx="230.32" cy="-62.37" r="0.94"/>
			</g>
			<g>
				<circle class="st1" cx="227.03" cy="-59.07" r="0.94"/>
			</g>
			<g>
				<circle class="st1" cx="223.73" cy="-55.77" r="0.94"/>
			</g>
			<g>
				<circle class="st1" cx="230.32" cy="-55.77" r="0.94"/>
			</g>
			<g>
				<circle class="st1" cx="227.03" cy="-52.48" r="0.94"/>
			</g>
		</g>
	</g>
	<g>
		<circle class="st1" cx="228" cy="-74.99" r="0.94"/>
	</g>
	<g>
		<circle class="st1" cx="224.69" cy="-71.38" r="0.94"/>
	</g>
	<g>
		<circle class="st1" cx="227.66" cy="-68.36" r="0.94"/>
	</g>
	<g>
		<circle class="st1" cx="213.12" cy="-55.41" r="0.94"/>
	</g>
	<g>
		<circle class="st1" cx="217.57" cy="-58.67" r="0.94"/>
	</g>
	<g>
		<circle class="st1" cx="222.36" cy="-55.41" r="0.94"/>
	</g>
	<g>
		<circle class="st1" cx="228" cy="-54.17" r="0.94"/>
	</g>
	<g>
		<circle class="st1" cx="232.8" cy="-59.07" r="0.94"/>
	</g>
	<g>
		<circle class="st1" cx="237.25" cy="-56.35" r="0.94"/>
	</g>
</g>
<g>
	<circle class="st0" cx="351.32" cy="-98.42" r="47.6"/>
	<g>
		<g>
			<path class="st1" d="M325.78-109.42l-0.32-0.41l-0.39-0.27l0.38,0.26l-0.27-0.38l2.18-1.52L325.78-109.42z M325.63-109.63
				l0.15,0.21L325.63-109.63z"/>
		</g>
		<g>
			<path class="st1" d="M341.54-96.1c-0.29,0-0.59-0.01-0.91-0.03c-3.12-0.18-6.58-4.8-9.25-8.55c-0.22,0.54-0.46,1.06-0.71,1.55
				c-0.17,0.33-0.46,0.57-0.82,0.68c-0.4,0.13-0.86,0.09-1.23-0.11c-0.7-0.37-0.96-1.29-0.57-2.04c0.21-0.41,0.41-0.83,0.59-1.25
				l0.19-0.48c0.08-0.21,0.16-0.42,0.23-0.63c0.08-0.25,0.16-0.5,0.23-0.74c-0.3-0.49-0.6-1.05-0.89-1.64
				c-0.06,0.08-0.13,0.15-0.19,0.23c-0.44,0.55-0.94,1.16-1.62,1.54c-0.71,0.39-1.58,0.17-2.03-0.53c-0.21-0.32-0.27-0.73-0.17-1.13
				c0.1-0.41,0.36-0.75,0.71-0.94l0.17-0.12c0.12-0.12,0.23-0.24,0.33-0.37l1.49-1.76c-0.13-0.36-0.26-0.73-0.38-1.11
				c-1.18,0.02-2.27-0.03-3.28-0.09c-0.83-0.05-1.43-0.66-1.47-1.48c-0.02-0.4,0.15-0.79,0.46-1.1c0.3-0.29,0.69-0.45,1.08-0.42
				c0.81,0.05,1.64,0.08,2.48,0.1c-0.71-4.2,0.41-6.83,3.19-7.44c2.4-0.53,5.71-0.09,7.42,2.76c0.14-0.08,0.28-0.17,0.41-0.26
				c0.11-0.07,0.21-0.15,0.32-0.23l0.48-0.37c0.1-0.08,0.2-0.17,0.3-0.25c0.38-0.32,0.75-0.68,1.1-1.05
				c0.55-0.58,1.5-0.59,2.11-0.02c0.28,0.25,0.44,0.61,0.45,1c0.01,0.42-0.14,0.83-0.43,1.13c-1.07,1.12-2.28,2.09-3.61,2.89
				c0.16,0.4,0.34,0.82,0.55,1.26c1.04-0.49,2.04-1.01,2.98-1.53c0.71-0.4,1.58-0.17,2.03,0.52c0.21,0.32,0.27,0.73,0.17,1.13
				c-0.1,0.41-0.36,0.75-0.71,0.95c-0.94,0.52-1.94,1.04-3.06,1.56c0.17,0.28,0.34,0.55,0.51,0.82c1.24-0.04,2.44-0.14,3.58-0.28
				c0.35-0.04,0.7,0.07,0.98,0.31c0.34,0.29,0.56,0.73,0.58,1.17c0.04,0.88-0.69,1.43-1.44,1.52c-0.54,0.07-1.1,0.12-1.7,0.17
				c0.94,1.25,1.88,2.35,2.58,3.02v0c2.74,2.65,3.62,5.27,2.62,7.8C346.31-97.2,344.68-96.1,341.54-96.1z M331.12-106.78l0.55,0.77
				c2.46,3.47,6.18,8.72,9.03,8.88c3.3,0.19,4.75-0.61,5.77-3.18c0.85-2.14,0.07-4.34-2.39-6.71v0c-0.88-0.85-2.09-2.3-3.24-3.89
				l-0.53-0.74l0.91-0.06c0.93-0.06,1.77-0.13,2.55-0.23c0.2-0.02,0.58-0.16,0.56-0.48c-0.01-0.16-0.1-0.34-0.22-0.45
				c-0.11-0.09-0.19-0.08-0.22-0.08c-1.26,0.15-2.58,0.25-3.95,0.29l-0.28,0.01l-0.15-0.24c-0.33-0.52-0.66-1.04-0.97-1.57
				l-0.28-0.47l0.5-0.23c1.3-0.6,2.44-1.18,3.49-1.76c0.11-0.06,0.19-0.18,0.22-0.32c0.03-0.13,0.02-0.25-0.04-0.34
				c-0.16-0.25-0.46-0.33-0.71-0.19c-1.09,0.61-2.27,1.21-3.49,1.77l-0.44,0.2l-0.22-0.44c-0.4-0.8-0.71-1.52-0.95-2.19l-0.14-0.4
				l0.37-0.21c1.39-0.79,2.65-1.77,3.75-2.92c0.1-0.1,0.15-0.25,0.15-0.4c0-0.09-0.03-0.21-0.13-0.3c-0.19-0.17-0.52-0.22-0.71-0.02
				c-0.38,0.39-0.77,0.77-1.17,1.11c-0.1,0.09-0.21,0.18-0.32,0.27l-0.53,0.41c-0.11,0.08-0.22,0.16-0.34,0.24
				c-0.24,0.17-0.5,0.32-0.75,0.47l-0.63,0.37l-0.24-0.49c-1.79-3.63-6.08-2.81-6.57-2.7c-2.93,0.64-2.87,4.09-2.31,6.86l0.12,0.6
				l-0.61,0c-1.06,0-2.12-0.04-3.14-0.1c-0.1-0.01-0.22,0.05-0.31,0.14c-0.1,0.1-0.16,0.23-0.16,0.34c0.01,0.3,0.22,0.5,0.53,0.52
				c1.09,0.07,2.27,0.09,3.58,0.09l0.38,0l0.11,0.36c0.17,0.57,0.37,1.13,0.57,1.68l0.1,0.27l-1.87,2.21
				c-0.1,0.12-0.21,0.24-0.32,0.36l0.01,0.06l-0.29,0.19l0,0c-0.08,0.05-0.13,0.08-0.17,0.11c-0.1,0.06-0.19,0.17-0.22,0.31
				c-0.03,0.13-0.02,0.26,0.04,0.35c0.16,0.25,0.45,0.33,0.71,0.19c0.51-0.28,0.93-0.8,1.33-1.29c0.1-0.13,0.21-0.26,0.31-0.38
				l0.89-1.06l0.33,0.71c0.42,0.89,0.86,1.73,1.29,2.43l0.12,0.19l-0.06,0.21c-0.1,0.34-0.19,0.68-0.31,1.01
				c-0.08,0.22-0.16,0.44-0.24,0.66l-0.2,0.51c-0.19,0.45-0.4,0.89-0.62,1.32c-0.12,0.24-0.09,0.57,0.15,0.7
				c0.13,0.07,0.31,0.09,0.46,0.04c0.11-0.03,0.19-0.1,0.23-0.18c0.36-0.71,0.69-1.47,1.01-2.31L331.12-106.78z M325.47-109.72
				l-0.15,0.33L325.47-109.72z"/>
		</g>
	</g>
	<g>
		<path class="st1" d="M357.14-64.64c-0.38,0-0.75-0.17-1.04-0.46c-0.29-0.3-0.45-0.69-0.42-1.07c0.02-0.36,0.03-0.72,0.01-1.09
			c-0.01-0.18-0.02-0.36-0.04-0.54l-0.04-0.27c-0.04-0.22-0.08-0.43-0.13-0.64c-2.84,0.77-5.86,1.19-8.96,1.26
			c-3.18,0.08-5.82-1.42-6.96-3.88c-0.94-2.02-0.63-4.29,0.81-5.92c1.82-2.06,3.89-2.15,6.09-2.25c1.03-0.05,2.09-0.09,3.25-0.32
			l-1.03-2.89c-0.12-0.34-0.1-0.71,0.07-1.05c0.19-0.38,0.54-0.69,0.95-0.82c0.84-0.27,1.6,0.3,1.86,1.01l1.01,2.83
			c0.75-0.3,1.72-0.67,2.8-0.99v-2.9c0-0.8,0.65-1.46,1.48-1.5c0.38-0.01,0.75,0.13,1.04,0.41c0.3,0.29,0.48,0.69,0.48,1.09v2.2
			c2.99-0.45,5.11,0.08,6.31,1.57c0.82,1.02,1.52,3.05,1.12,5.08c-0.35,1.78-1.47,3.24-3.25,4.24c-0.03,0.02-0.06,0.04-0.1,0.05
			l1.9,2.68c0.21,0.29,0.28,0.66,0.21,1.03c-0.08,0.42-0.35,0.82-0.71,1.05c-0.74,0.47-1.62,0.12-2.05-0.49l-2.09-2.95
			c-0.48,0.2-0.93,0.38-1.38,0.55c0.3,1.15,0.41,2.35,0.34,3.51c-0.05,0.83-0.66,1.43-1.48,1.47
			C357.17-64.64,357.15-64.64,357.14-64.64z M356.17-69.94l0.14,0.48c0.12,0.4,0.21,0.79,0.28,1.18l0.05,0.39
			c0.02,0.18,0.04,0.39,0.04,0.59c0.02,0.39,0.02,0.79-0.01,1.2c-0.01,0.1,0.05,0.21,0.14,0.31c0.1,0.1,0.24,0.16,0.34,0.16
			c0.3-0.01,0.5-0.22,0.52-0.53c0.08-1.19-0.07-2.44-0.43-3.61l-0.14-0.46l0.45-0.16c0.67-0.24,1.37-0.51,2.12-0.84l0.38-0.16
			l2.56,3.62c0.14,0.19,0.44,0.39,0.69,0.23c0.13-0.08,0.24-0.24,0.27-0.4c0.02-0.1,0-0.19-0.04-0.26l-2.57-3.63l0.51-0.27
			c0.09-0.05,0.18-0.09,0.28-0.14c0.11-0.05,0.21-0.1,0.31-0.16c1.53-0.86,2.46-2.06,2.75-3.56c0.36-1.84-0.36-3.56-0.92-4.27
			c-1.03-1.28-3.02-1.66-5.93-1.11l-0.59,0.11v-3.4c0-0.13-0.07-0.27-0.17-0.37c-0.05-0.05-0.17-0.14-0.31-0.13
			c-0.25,0.01-0.52,0.19-0.52,0.5v3.65l-0.36,0.1c-1.43,0.41-2.71,0.91-3.53,1.26l-0.49,0.21l-0.19-0.49l-1.19-3.33
			c-0.09-0.25-0.34-0.47-0.61-0.39c-0.15,0.05-0.29,0.17-0.36,0.31c-0.05,0.1-0.06,0.19-0.03,0.28l1.41,3.94l-0.54,0.13
			c-1.46,0.36-2.8,0.42-3.99,0.47c-2.15,0.09-3.85,0.17-5.38,1.91c-1.17,1.33-1.42,3.18-0.65,4.84c0.76,1.64,2.76,3.39,6.04,3.3
			c3.2-0.07,6.3-0.52,9.2-1.35L356.17-69.94z"/>
	</g>
	<g>
		<path class="st1" d="M367.92-101.95c-0.95,0-1.88-0.25-2.77-0.73c-1.19-0.66-1.98-1.63-2.33-2.89c-0.86-3.12,1.21-7.18,2.13-8.78
			c0.14-0.25,0.29-0.55,0.46-0.88c1.13-2.23,3.22-6.39,8.94-5.1l0,0c1.77,0.4,2.98,1.29,3.59,2.63c1.34,2.93-0.54,7.25-1.78,9.56
			c-0.94,1.76-3.38,4.98-6.55,5.92C369.05-102.04,368.48-101.95,367.92-101.95z M372.31-119.57c-3.58,0-5.01,2.83-6,4.79
			c-0.18,0.35-0.34,0.67-0.49,0.93c-0.87,1.49-2.8,5.26-2.04,8.01c0.28,1,0.88,1.75,1.84,2.28c1.17,0.64,2.42,0.78,3.71,0.4
			c2.49-0.74,4.83-3.33,5.96-5.44c0.93-1.73,2.96-6.04,1.75-8.68c-0.49-1.06-1.44-1.74-2.91-2.07
			C373.48-119.5,372.87-119.57,372.31-119.57z"/>
	</g>
	<g>
		<circle class="st1" cx="358.47" cy="-123.64" r="0.94"/>
	</g>
	<g>
		<circle class="st1" cx="331.47" cy="-114.3" r="0.94"/>
	</g>
	<g>
		<circle class="st1" cx="336.07" cy="-110.32" r="0.94"/>
	</g>
	<g>
		<circle class="st1" cx="338.84" cy="-102.12" r="0.94"/>
	</g>
	<g>
		<circle class="st1" cx="354.46" cy="-100.73" r="0.94"/>
	</g>
	<g>
		<circle class="st1" cx="348.64" cy="-90.07" r="0.94"/>
	</g>
	<g>
		<circle class="st1" cx="328.76" cy="-83.05" r="0.94"/>
	</g>
	<g>
		<circle class="st1" cx="315.91" cy="-93.98" r="0.94"/>
	</g>
	<g>
		<circle class="st1" cx="352.95" cy="-72.57" r="0.94"/>
	</g>
	<g>
		<circle class="st1" cx="373.02" cy="-89.44" r="0.94"/>
	</g>
	<g>
		<circle class="st1" cx="379.29" cy="-80.48" r="0.94"/>
	</g>
	<g>
		<circle class="st1" cx="385.81" cy="-100.24" r="0.94"/>
	</g>
	<g>
		<circle class="st1" cx="359.52" cy="-77.07" r="0.94"/>
	</g>
	<g>
		<circle class="st1" cx="367.15" cy="-107.46" r="0.94"/>
	</g>
	<g>
		<circle class="st1" cx="373.02" cy="-113.09" r="0.94"/>
	</g>
</g>
<g>
	<circle class="st0" cx="405.13" cy="12.88" r="47.6"/>
	<g>
		<path class="st1" d="M377.68,41.53c-0.83,0-1.5-0.67-1.5-1.5V14.15l3.3-3.82V-8.3c0-0.83,0.67-1.5,1.5-1.5s1.5,0.67,1.5,1.5v19.74
			l-3.3,3.82v24.76C379.18,40.86,378.51,41.53,377.68,41.53z"/>
	</g>
	<g>
		<path class="st1" d="M380.98-6.58h-7.71c-0.55,0-1-0.45-1-1s0.45-1,1-1h7.71c0.55,0,1,0.45,1,1S381.53-6.58,380.98-6.58z"/>
	</g>
	<g>
		<path class="st1" d="M380.98-3.48h-7.71c-0.55,0-1-0.45-1-1s0.45-1,1-1h7.71c0.55,0,1,0.45,1,1S381.53-3.48,380.98-3.48z"/>
	</g>
	<g>
		<path class="st1" d="M380.98-0.38h-7.71c-0.55,0-1-0.45-1-1s0.45-1,1-1h7.71c0.55,0,1,0.45,1,1S381.53-0.38,380.98-0.38z"/>
	</g>
	<g>
		<path class="st1" d="M380.98,2.72h-7.71c-0.55,0-1-0.45-1-1s0.45-1,1-1h7.71c0.55,0,1,0.45,1,1S381.53,2.72,380.98,2.72z"/>
	</g>
	<g>
		<path class="st1" d="M380.98,5.82h-7.71c-0.55,0-1-0.45-1-1s0.45-1,1-1h7.71c0.55,0,1,0.45,1,1S381.53,5.82,380.98,5.82z"/>
	</g>
	<g>
		<path class="st1" d="M408.44,44.75h-13.38c-3.17,0-5.74-2.58-5.74-5.74v-7.36c0-0.89,0.32-1.75,0.91-2.42l1.13-1.29V2.58
			c-0.3-1.01-2.95-11.03,6.23-16.48v-8.95h8.32v8.95c9.18,5.45,6.53,15.47,6.23,16.48v25.35l1.13,1.29
			c0.59,0.67,0.91,1.53,0.91,2.42V39C414.18,42.17,411.6,44.75,408.44,44.75z M398.58-21.85v8.53l-0.25,0.14
			c-9.21,5.27-6.14,15.11-6,15.53l0.02,0.15v25.8l-1.38,1.57c-0.43,0.49-0.66,1.11-0.66,1.76V39c0,2.61,2.13,4.74,4.74,4.74h13.38
			c2.61,0,4.74-2.13,4.74-4.74v-7.36c0-0.65-0.24-1.27-0.66-1.76l-1.38-1.57l0.02-25.96c0.14-0.42,3.21-10.27-6-15.53l-0.25-0.14
			v-8.53H398.58z"/>
	</g>
	<g>
		<rect x="396.54" y="-18.17" class="st1" width="10.22" height="1"/>
	</g>
	<g>
		<rect x="391.85" y="6.36" class="st1" width="19.78" height="1"/>
	</g>
	<g>
		<rect x="391.85" y="23.83" class="st1" width="19.78" height="1"/>
	</g>
	<g>
		<path class="st1" d="M442.46,33.55l-0.64-0.41c-0.02-0.01-2.09-1.26-8-1.35c-2.9-0.04-5.01,0.37-7.05,0.76
			c-2.31,0.45-4.5,0.88-7.66,0.67l-0.45-0.03l-0.02-0.45c0-0.06-0.19-5.59,0.55-11.06c0.38-2.82,0.18-4.66-0.04-6.61
			c-0.2-1.79-0.4-3.64-0.16-6.32c0.48-5.4-0.82-12.1-0.83-12.17l-0.12-0.6h5.76V6.09l12.37-0.6l0.35-10.16h5.52l0.26,13.45
			c0.01,0.12,0.19,3.5-0.51,6.31c-0.68,2.73-0.39,5.02,0.52,9.13c0.97,4.38,0.3,8.41,0.28,8.58L442.46,33.55z M419.64,32.25
			c2.8,0.14,4.81-0.26,6.95-0.68c2.09-0.41,4.24-0.83,7.26-0.78c4.41,0.07,6.79,0.77,7.84,1.19c0.14-1.31,0.35-4.36-0.35-7.54
			c-0.95-4.27-1.25-6.67-0.52-9.59c0.67-2.66,0.48-6,0.48-6.03l-0.24-12.48h-3.58l-0.34,10.11L422.8,7.14V-3.02h-3.55
			c0.31,1.79,1.15,7.2,0.74,11.86c-0.23,2.58-0.03,4.38,0.16,6.12c0.21,1.93,0.43,3.92,0.04,6.86
			C419.58,26.3,419.61,30.83,419.64,32.25z"/>
	</g>
</g>
<g>
	<circle class="st0" cx="552" cy="-86.36" r="47.6"/>
	<g>
		<defs>
			<circle id="SVGID_3_" cx="552" cy="-86.36" r="38.96"/>
		</defs>
		<clipPath id="SVGID_4_">
			<use xlink:href="#SVGID_3_"  style="overflow:visible;"/>
		</clipPath>
		<g class="st3">
			<path class="st1" d="M578.47-77.7c-3.1,0-4.19-1.19-5.16-2.25c-0.96-1.05-1.83-1.94-4.55-1.91c-2.04,0.03-2.7,0.89-3.45,1.88
				c-0.81,1.07-1.73,2.27-4.37,2.27c-2.56,0-3.84-1.17-4.96-2.21c-1.08-1-2.11-1.94-4.28-1.94c-2.2,0-3.09,0.96-4.03,1.98
				c-0.95,1.02-2.02,2.18-4.38,2.18c-2.29,0-3.13-1.05-3.94-2.06c-0.86-1.08-1.68-2.09-4.47-2.09c-2.72,0-3.77,0.98-4.89,2.03
				c-1.12,1.05-2.27,2.13-4.94,2.13c-2.86,0-3.91-1.25-4.83-2.35c-0.81-0.97-1.51-1.8-3.46-1.8v-1c2.41,0,3.38,1.15,4.23,2.16
				c0.86,1.03,1.67,1.99,4.07,1.99c2.28,0,3.2-0.86,4.26-1.86c1.15-1.08,2.45-2.3,5.57-2.3c3.27,0,4.32,1.31,5.25,2.47
				c0.76,0.94,1.35,1.69,3.16,1.69c1.93,0,2.73-0.86,3.65-1.86c1-1.08,2.13-2.3,4.76-2.3c2.56,0,3.84,1.17,4.96,2.21
				c1.08,1,2.11,1.94,4.28,1.94c2.14,0,2.81-0.87,3.58-1.88c0.8-1.05,1.7-2.23,4.23-2.27c3.25-0.05,4.32,1.16,5.3,2.23
				c0.94,1.03,1.76,1.92,4.42,1.92c2.7,0,3.43-0.99,4.27-2.13c0.84-1.14,1.8-2.42,4.73-2.42v1c-2.43,0-3.12,0.94-3.93,2.02
				C582.66-79.04,581.67-77.7,578.47-77.7z"/>
		</g>
		<g class="st3">
			<path class="st1" d="M578.47-68.34c-3.1,0-4.19-1.19-5.16-2.25c-0.96-1.05-1.81-1.93-4.55-1.91c-2.04,0.03-2.7,0.89-3.45,1.88
				c-0.81,1.07-1.73,2.27-4.37,2.27c-2.56,0-3.84-1.17-4.96-2.21c-1.08-1-2.11-1.94-4.28-1.94c-2.2,0-3.09,0.96-4.03,1.98
				c-0.95,1.02-2.02,2.18-4.38,2.18c-2.29,0-3.13-1.05-3.94-2.06c-0.86-1.08-1.68-2.09-4.47-2.09c-2.72,0-3.77,0.98-4.89,2.03
				c-1.12,1.05-2.27,2.13-4.94,2.13c-2.86,0-3.91-1.25-4.83-2.35c-0.81-0.97-1.51-1.8-3.46-1.8v-1c2.41,0,3.38,1.15,4.23,2.16
				c0.86,1.03,1.67,1.99,4.07,1.99c2.28,0,3.2-0.86,4.26-1.86c1.15-1.08,2.45-2.3,5.57-2.3c3.27,0,4.32,1.31,5.25,2.47
				c0.76,0.94,1.35,1.69,3.16,1.69c1.93,0,2.73-0.86,3.65-1.86c1-1.08,2.13-2.3,4.76-2.3c2.56,0,3.84,1.17,4.96,2.21
				c1.08,1,2.11,1.94,4.28,1.94c2.14,0,2.81-0.87,3.58-1.88c0.8-1.05,1.7-2.23,4.23-2.27c3.25-0.06,4.32,1.16,5.3,2.23
				c0.94,1.03,1.76,1.92,4.42,1.92c2.7,0,3.43-0.99,4.27-2.13c0.84-1.14,1.8-2.42,4.73-2.42v1c-2.43,0-3.12,0.94-3.93,2.02
				C582.66-69.69,581.67-68.34,578.47-68.34z"/>
		</g>
		<g class="st3">
			<path class="st1" d="M578.47-58.98c-3.1,0-4.19-1.19-5.16-2.25c-0.96-1.05-1.83-1.95-4.55-1.91c-2.04,0.03-2.7,0.89-3.45,1.88
				c-0.81,1.07-1.73,2.27-4.37,2.27c-2.56,0-3.84-1.17-4.96-2.21c-1.08-1-2.11-1.94-4.28-1.94c-2.2,0-3.09,0.96-4.03,1.98
				c-0.95,1.02-2.02,2.18-4.38,2.18c-2.29,0-3.13-1.05-3.94-2.06c-0.86-1.08-1.68-2.09-4.47-2.09c-2.72,0-3.77,0.98-4.89,2.03
				c-1.12,1.05-2.27,2.13-4.94,2.13c-2.86,0-3.91-1.25-4.83-2.35c-0.81-0.97-1.51-1.8-3.46-1.8v-1c2.41,0,3.38,1.15,4.23,2.16
				c0.86,1.03,1.67,1.99,4.07,1.99c2.28,0,3.2-0.86,4.26-1.86c1.15-1.08,2.45-2.3,5.57-2.3c3.27,0,4.32,1.31,5.25,2.47
				c0.76,0.94,1.35,1.69,3.16,1.69c1.93,0,2.73-0.86,3.65-1.86c1-1.08,2.13-2.3,4.76-2.3c2.56,0,3.84,1.17,4.96,2.21
				c1.08,1,2.11,1.94,4.28,1.94c2.14,0,2.81-0.87,3.58-1.88c0.8-1.05,1.7-2.23,4.23-2.27c3.25-0.06,4.32,1.16,5.3,2.23
				c0.94,1.03,1.76,1.92,4.42,1.92c2.7,0,3.43-0.99,4.27-2.13c0.84-1.14,1.8-2.42,4.73-2.42v1c-2.43,0-3.12,0.94-3.93,2.02
				C582.66-60.33,581.67-58.98,578.47-58.98z"/>
		</g>
		<g class="st3">
			<path class="st1" d="M578.47-49.63c-3.1,0-4.19-1.19-5.16-2.25c-0.96-1.05-1.81-1.94-4.55-1.91c-2.04,0.03-2.7,0.89-3.45,1.88
				c-0.81,1.07-1.73,2.27-4.37,2.27c-2.56,0-3.84-1.17-4.96-2.21c-1.08-1-2.11-1.94-4.28-1.94c-2.2,0-3.09,0.96-4.03,1.98
				c-0.95,1.02-2.02,2.18-4.38,2.18c-2.29,0-3.13-1.05-3.94-2.06c-0.86-1.08-1.68-2.09-4.47-2.09c-2.72,0-3.77,0.98-4.89,2.03
				c-1.12,1.05-2.27,2.13-4.94,2.13c-2.86,0-3.91-1.25-4.83-2.35c-0.81-0.97-1.51-1.8-3.46-1.8v-1c2.41,0,3.38,1.15,4.23,2.16
				c0.86,1.03,1.67,1.99,4.07,1.99c2.28,0,3.2-0.86,4.26-1.86c1.15-1.08,2.45-2.3,5.57-2.3c3.27,0,4.32,1.31,5.25,2.47
				c0.76,0.94,1.35,1.69,3.16,1.69c1.93,0,2.73-0.86,3.65-1.86c1-1.08,2.13-2.3,4.76-2.3c2.56,0,3.84,1.17,4.96,2.21
				c1.08,1,2.11,1.94,4.28,1.94c2.14,0,2.81-0.87,3.58-1.88c0.8-1.05,1.7-2.23,4.23-2.27c3.25-0.05,4.32,1.16,5.3,2.23
				c0.94,1.03,1.76,1.92,4.42,1.92c2.7,0,3.43-0.99,4.27-2.13c0.84-1.14,1.8-2.42,4.73-2.42v1c-2.43,0-3.12,0.94-3.93,2.02
				C582.66-50.97,581.67-49.63,578.47-49.63z"/>
		</g>
		<g class="st3">
			<circle class="st1" cx="565.96" cy="-107.96" r="7.91"/>
		</g>
		<g class="st3">
			<path class="st1" d="M554.78-107.21h-4.65c-0.41,0-0.75-0.34-0.75-0.75s0.34-0.75,0.75-0.75h4.65c0.41,0,0.75,0.34,0.75,0.75
				S555.2-107.21,554.78-107.21z"/>
		</g>
		<g class="st3">
			<path class="st1" d="M547.41-107.21h-2.08c-0.41,0-0.75-0.34-0.75-0.75s0.34-0.75,0.75-0.75h2.08c0.41,0,0.75,0.34,0.75,0.75
				S547.83-107.21,547.41-107.21z"/>
		</g>
		<g class="st3">
			<path class="st1" d="M552.25-99.29c-0.26,0-0.51-0.13-0.65-0.38c-0.21-0.36-0.08-0.82,0.27-1.02l4.03-2.32
				c0.36-0.21,0.82-0.08,1.02,0.27c0.21,0.36,0.08,0.82-0.27,1.02l-4.03,2.32C552.51-99.33,552.38-99.29,552.25-99.29z"/>
		</g>
		<g class="st3">
			<path class="st1" d="M548.1-96.9c-0.26,0-0.51-0.13-0.65-0.38c-0.21-0.36-0.08-0.82,0.27-1.02l1.8-1.04
				c0.36-0.21,0.82-0.08,1.02,0.27c0.21,0.36,0.08,0.82-0.27,1.02l-1.8,1.04C548.36-96.93,548.23-96.9,548.1-96.9z"/>
		</g>
		<g class="st3">
			<path class="st1" d="M558.04-93.5c-0.13,0-0.26-0.03-0.37-0.1c-0.36-0.21-0.48-0.67-0.27-1.02l2.32-4.03
				c0.21-0.36,0.66-0.48,1.02-0.27c0.36,0.21,0.48,0.67,0.27,1.02l-2.32,4.03C558.56-93.64,558.3-93.5,558.04-93.5z"/>
		</g>
		<g class="st3">
			<path class="st1" d="M555.65-89.35c-0.13,0-0.26-0.03-0.37-0.1c-0.36-0.21-0.48-0.67-0.27-1.02l1.04-1.8
				c0.21-0.36,0.66-0.48,1.02-0.27c0.36,0.21,0.48,0.67,0.27,1.02l-1.04,1.8C556.16-89.48,555.91-89.35,555.65-89.35z"/>
		</g>
		<g class="st3">
			<path class="st1" d="M565.96-91.38c-0.41,0-0.75-0.34-0.75-0.75v-4.65c0-0.41,0.34-0.75,0.75-0.75s0.75,0.34,0.75,0.75v4.65
				C566.71-91.72,566.37-91.38,565.96-91.38z"/>
		</g>
		<g class="st3">
			<path class="st1" d="M565.96-86.59c-0.41,0-0.75-0.34-0.75-0.75v-2.08c0-0.41,0.34-0.75,0.75-0.75s0.75,0.34,0.75,0.75v2.08
				C566.71-86.92,566.37-86.59,565.96-86.59z"/>
		</g>
		<g class="st3">
			<path class="st1" d="M573.87-93.5c-0.26,0-0.51-0.13-0.65-0.38l-2.32-4.03c-0.21-0.36-0.08-0.82,0.27-1.02
				c0.36-0.21,0.82-0.08,1.02,0.27l2.32,4.03c0.21,0.36,0.08,0.82-0.27,1.02C574.13-93.53,574-93.5,573.87-93.5z"/>
		</g>
		<g class="st3">
			<path class="st1" d="M576.27-89.35c-0.26,0-0.51-0.13-0.65-0.38l-1.04-1.8c-0.21-0.36-0.08-0.82,0.27-1.02
				c0.36-0.21,0.82-0.08,1.02,0.27l1.04,1.8c0.21,0.36,0.08,0.82-0.27,1.02C576.52-89.38,576.4-89.35,576.27-89.35z"/>
		</g>
		<g class="st3">
			<path class="st1" d="M579.66-99.29c-0.13,0-0.26-0.03-0.37-0.1l-4.03-2.32c-0.36-0.21-0.48-0.67-0.27-1.02
				c0.21-0.36,0.67-0.48,1.02-0.27l4.03,2.32c0.36,0.21,0.48,0.67,0.27,1.02C580.17-99.43,579.92-99.29,579.66-99.29z"/>
		</g>
		<g class="st3">
			<path class="st1" d="M583.81-96.9c-0.13,0-0.26-0.03-0.37-0.1l-1.8-1.04c-0.36-0.21-0.48-0.67-0.27-1.02s0.66-0.48,1.02-0.27
				l1.8,1.04c0.36,0.21,0.48,0.67,0.27,1.02C584.33-97.03,584.07-96.9,583.81-96.9z"/>
		</g>
		<g class="st3">
			<path class="st1" d="M581.78-107.21h-4.65c-0.41,0-0.75-0.34-0.75-0.75s0.34-0.75,0.75-0.75h4.65c0.41,0,0.75,0.34,0.75,0.75
				S582.2-107.21,581.78-107.21z"/>
		</g>
		<g class="st3">
			<path class="st1" d="M586.58-107.21h-2.08c-0.41,0-0.75-0.34-0.75-0.75s0.34-0.75,0.75-0.75h2.08c0.41,0,0.75,0.34,0.75,0.75
				S586.99-107.21,586.58-107.21z"/>
		</g>
		<g class="st3">
			<path class="st1" d="M575.64-112.79c-0.26,0-0.51-0.13-0.65-0.38c-0.21-0.36-0.08-0.82,0.27-1.02l4.03-2.32
				c0.36-0.21,0.82-0.08,1.02,0.27c0.21,0.36,0.08,0.82-0.27,1.02l-4.03,2.32C575.89-112.83,575.76-112.79,575.64-112.79z"/>
		</g>
		<g class="st3">
			<path class="st1" d="M582.02-116.48c-0.26,0-0.51-0.13-0.65-0.38c-0.21-0.36-0.08-0.82,0.27-1.02l1.8-1.04
				c0.36-0.21,0.82-0.08,1.02,0.27c0.21,0.36,0.08,0.82-0.27,1.02l-1.8,1.04C582.27-116.51,582.15-116.48,582.02-116.48z"/>
		</g>
		<g class="st3">
			<path class="st1" d="M571.54-116.89c-0.13,0-0.26-0.03-0.37-0.1c-0.36-0.21-0.48-0.67-0.27-1.02l2.32-4.03
				c0.21-0.36,0.67-0.48,1.02-0.27c0.36,0.21,0.48,0.67,0.27,1.02l-2.32,4.03C572.06-117.02,571.8-116.89,571.54-116.89z"/>
		</g>
		<g class="st3">
			<path class="st1" d="M575.23-123.27c-0.13,0-0.26-0.03-0.37-0.1c-0.36-0.21-0.48-0.67-0.27-1.02l1.04-1.8
				c0.21-0.36,0.67-0.48,1.02-0.27c0.36,0.21,0.48,0.67,0.27,1.02l-1.04,1.8C575.74-123.4,575.49-123.27,575.23-123.27z"/>
		</g>
		<g class="st3">
			<path class="st1" d="M565.96-118.38c-0.41,0-0.75-0.34-0.75-0.75v-4.65c0-0.41,0.34-0.75,0.75-0.75s0.75,0.34,0.75,0.75v4.65
				C566.71-118.72,566.37-118.38,565.96-118.38z"/>
		</g>
		<g class="st3">
			<path class="st1" d="M565.96-125.75c-0.41,0-0.75-0.34-0.75-0.75v-2.08c0-0.41,0.34-0.75,0.75-0.75s0.75,0.34,0.75,0.75v2.08
				C566.71-126.09,566.37-125.75,565.96-125.75z"/>
		</g>
		<g class="st3">
			<path class="st1" d="M560.37-116.89c-0.26,0-0.51-0.13-0.65-0.38l-2.32-4.03c-0.21-0.36-0.08-0.82,0.27-1.02
				c0.36-0.21,0.82-0.08,1.02,0.27l2.32,4.03c0.21,0.36,0.08,0.82-0.27,1.02C560.63-116.92,560.5-116.89,560.37-116.89z"/>
		</g>
		<g class="st3">
			<path class="st1" d="M556.69-123.27c-0.26,0-0.51-0.13-0.65-0.38l-1.04-1.8c-0.21-0.36-0.08-0.82,0.27-1.02
				c0.36-0.21,0.82-0.08,1.02,0.27l1.04,1.8c0.21,0.36,0.08,0.82-0.27,1.02C556.94-123.3,556.81-123.27,556.69-123.27z"/>
		</g>
		<g class="st3">
			<path class="st1" d="M556.28-112.79c-0.13,0-0.26-0.03-0.37-0.1l-4.03-2.32c-0.36-0.21-0.48-0.67-0.27-1.02
				c0.21-0.36,0.67-0.48,1.02-0.27l4.03,2.32c0.36,0.21,0.48,0.67,0.27,1.02C556.79-112.93,556.54-112.79,556.28-112.79z"/>
		</g>
		<g class="st3">
			<path class="st1" d="M549.9-116.48c-0.13,0-0.26-0.03-0.37-0.1l-1.8-1.04c-0.36-0.21-0.48-0.67-0.27-1.02
				c0.21-0.36,0.67-0.48,1.02-0.27l1.8,1.04c0.36,0.21,0.48,0.67,0.27,1.02C550.41-116.61,550.16-116.48,549.9-116.48z"/>
		</g>
	</g>
</g>
<g>
	<g>
		<circle class="st1" cx="33.57" cy="47.6" r="1.48"/>
	</g>
	<g>
		<circle class="st1" cx="36.44" cy="47.6" r="0.94"/>
	</g>
	<g>
		<circle class="st1" cx="39.8" cy="47.6" r="0.94"/>
	</g>
	<circle class="st0" cx="47.6" cy="47.6" r="47.6"/>
	<g>
		<path class="st1" d="M43.85,55.97c-13.97,0-19.2-4.39-19.42-4.57l-0.59-0.51l3.73-1.72l-4.18-2.66l0.56-0.44
			c0.28-0.22,7.09-5.45,18.8-5.45c8.01,0,12.51,2.93,15.49,4.87c1.34,0.87,2.4,1.56,3.23,1.6c1.2,0.09,2.13-0.98,3.22-2.18
			c1.27-1.4,2.72-2.99,4.94-3.11l1.62-0.08l-1.29,0.98c-0.03,0.02-3.17,2.44-3.21,5.65c-0.03,1.93,1.06,3.79,3.23,5.53l0,0
			c0.13,0.1,0.51,0.41,0.24,0.8c-0.28,0.4-0.53,0.25-1.35-0.24c-1.52-0.9-5.55-3.3-7.76-3.45c-0.9-0.07-1.53,0.4-2.49,1.1
			C56.5,53.64,53.3,55.97,43.85,55.97z M25.77,51.11c1.78,1.12,7.26,3.86,18.09,3.86c9.12,0,12.16-2.21,14.17-3.68
			c1.06-0.77,1.89-1.38,3.15-1.29c1.63,0.11,3.97,1.22,5.85,2.24c-0.87-1.25-1.29-2.55-1.27-3.9c0.03-2.06,1.1-3.79,2.07-4.93
			c-0.89,0.54-1.64,1.37-2.38,2.18c-1.21,1.33-2.33,2.6-4.01,2.51c-1.1-0.06-2.26-0.81-3.73-1.77c-2.88-1.88-7.23-4.71-14.94-4.71
			c-9.45,0-15.71,3.58-17.59,4.82l4.49,2.86L25.77,51.11z"/>
	</g>
	<g>
		<circle class="st1" cx="43.61" cy="50.13" r="0.94"/>
	</g>
	<g>
		<circle class="st1" cx="39.8" cy="51.91" r="0.94"/>
	</g>
	<g>
		<circle class="st1" cx="33.57" cy="46.12" r="1.48"/>
	</g>
	<g>
		<circle class="st1" cx="46.1" cy="54.03" r="0.94"/>
	</g>
	<g>
		<circle class="st1" cx="50.25" cy="51.07" r="0.94"/>
	</g>
</g>
<g>
	<circle class="st0" cx="877.62" cy="-102.87" r="47.6"/>
	<g>
		<path class="st1" d="M883.54-87.68c-0.72,0-6.12-0.12-12.22-3.56c-1.87,0.05-18.92,0.36-26.52-6.56l-0.5-0.46l4.41-2.59
			l-4.99-3.01l0.49-0.45c0.09-0.08,8.88-8.08,21.46-8.69c0.82-0.9,4.85-4.54,15.41-3.04l2.46,0.35l-2.41,0.63
			c-0.03,0.01-2.79,0.75-4.79,2.71c2.66,0.38,10.18,1.69,14.57,4.67c5.34,3.63,8.67,4.97,12.06,2.2c1.37-1.11,2.2-2.07,2.94-2.91
			c1.23-1.41,2.2-2.53,4.78-3.12l1.55-0.36l-1.07,1.18c-0.05,0.05-4.68,5.23-3.93,10.17c0.75,4.96,4.97,7.63,5.01,7.66l2.41,1.5
			l-2.77-0.58c-0.24-0.05-5.85-1.27-9.09-5.22c-2.28-2.78-2.88-2.31-4.65-0.94c-0.42,0.32-0.88,0.68-1.41,1.04
			c-2.57,1.71-12.87,4.71-17.86,4.8c1.17,1.13,3.25,2.98,4.91,3.62l2.4,0.92l-2.57,0.04C883.6-87.68,883.58-87.68,883.54-87.68z
			 M871.57-92.25l0.12,0.07c3.86,2.19,7.47,3.01,9.69,3.32c-2.08-1.45-4.02-3.51-4.13-3.63l-0.97-1.04l1.41,0.2
			c3.92,0.56,15.84-2.8,18.5-4.57c0.51-0.34,0.96-0.69,1.35-1c2-1.55,3.27-2.27,6.04,1.09c1.74,2.12,4.3,3.42,6.16,4.13
			c-1.37-1.38-3.01-3.63-3.48-6.71c-0.58-3.87,1.7-7.71,3.12-9.66c-1.18,0.54-1.84,1.29-2.71,2.3c-0.72,0.83-1.63,1.86-3.06,3.03
			c-4.24,3.46-8.51,1.07-13.26-2.15c-5.08-3.45-14.97-4.62-15.07-4.63l-0.9-0.1l0.56-0.71c1.17-1.46,2.73-2.41,3.96-2.99
			c-9.57-0.82-12.56,3.03-12.6,3.07l-0.14,0.19l-0.24,0.01c-10.63,0.44-18.5,6.33-20.53,8l5.27,3.18l-4.67,2.74
			c7.85,6.43,25.25,5.86,25.43,5.85L871.57-92.25z"/>
	</g>
	<g>
		
			<rect x="856.46" y="-106.41" transform="matrix(0.7597 -0.6503 0.6503 0.7597 275.3005 533.1169)" class="st1" width="4.95" height="1"/>
	</g>
	<g>
		
			<rect x="858.31" y="-108.26" transform="matrix(0.6968 -0.7173 0.7173 0.6968 336.2743 583.9032)" class="st1" width="1" height="4.9"/>
	</g>
	<g>
		<circle class="st1" cx="850.51" cy="-98.57" r="0.94"/>
	</g>
	<g>
		<circle class="st1" cx="857.56" cy="-98.57" r="0.94"/>
	</g>
	<g>
		<circle class="st1" cx="864.62" cy="-98.57" r="0.94"/>
	</g>
	<g>
		<circle class="st1" cx="871.67" cy="-98.57" r="0.94"/>
	</g>
	<g>
		<circle class="st1" cx="878.73" cy="-98.57" r="0.94"/>
	</g>
	<g>
		<circle class="st1" cx="885.78" cy="-98.57" r="0.94"/>
	</g>
	<g>
		<circle class="st1" cx="892.84" cy="-98.57" r="0.94"/>
	</g>
	<g>
		<circle class="st1" cx="853.64" cy="-95.1" r="0.94"/>
	</g>
	<g>
		<circle class="st1" cx="860.69" cy="-95.1" r="0.94"/>
	</g>
	<g>
		<circle class="st1" cx="867.75" cy="-95.1" r="0.94"/>
	</g>
	<g>
		<circle class="st1" cx="874.8" cy="-95.1" r="0.94"/>
	</g>
	<g>
		<circle class="st1" cx="881.86" cy="-95.1" r="0.94"/>
	</g>
	<g>
		<circle class="st1" cx="888.91" cy="-95.1" r="0.94"/>
	</g>
</g>
<g>
	<circle class="st1" cx="962.97" cy="-102.87" r="0.94"/>
</g>
<g>
	<circle class="st0" cx="990.07" cy="-102.87" r="47.6"/>
	<g>
		<path class="st1" d="M996-87.68c-0.72,0-6.12-0.12-12.22-3.56c-1.87,0.05-18.92,0.36-26.52-6.56l-0.5-0.46l4.41-2.59l-4.99-3.01
			l0.49-0.45c0.09-0.08,8.88-8.08,21.46-8.69c0.82-0.9,4.84-4.54,15.41-3.04l2.46,0.35l-2.41,0.63c-0.03,0.01-2.79,0.75-4.79,2.71
			c2.66,0.38,10.18,1.69,14.57,4.67c5.34,3.63,8.67,4.97,12.06,2.2c1.37-1.11,2.2-2.07,2.93-2.91c1.23-1.41,2.21-2.53,4.79-3.12
			l1.55-0.36l-1.07,1.18c-0.05,0.05-4.68,5.23-3.93,10.17c0.75,4.96,4.97,7.63,5.01,7.66l2.41,1.5l-2.77-0.58
			c-0.24-0.05-5.85-1.27-9.09-5.22c-2.28-2.78-2.88-2.31-4.65-0.94c-0.42,0.32-0.88,0.68-1.41,1.04c-2.57,1.71-12.87,4.71-17.86,4.8
			c1.17,1.13,3.25,2.98,4.9,3.62l2.4,0.92l-2.57,0.04C996.06-87.68,996.04-87.68,996-87.68z M984.02-92.25l0.12,0.07
			c3.86,2.19,7.47,3.01,9.69,3.32c-2.08-1.45-4.02-3.51-4.13-3.63l-0.97-1.04l1.41,0.2c3.92,0.56,15.84-2.8,18.5-4.57
			c0.51-0.34,0.96-0.69,1.35-0.99c2-1.56,3.27-2.27,6.04,1.09c1.74,2.12,4.3,3.42,6.16,4.13c-1.37-1.38-3.01-3.63-3.48-6.71
			c-0.58-3.87,1.69-7.71,3.12-9.66c-1.18,0.54-1.84,1.29-2.71,2.3c-0.72,0.83-1.63,1.86-3.06,3.03c-4.24,3.46-8.51,1.07-13.26-2.15
			c-5.08-3.45-14.97-4.62-15.07-4.63l-0.9-0.1l0.56-0.71c1.16-1.46,2.73-2.41,3.96-2.99c-9.57-0.82-12.56,3.03-12.59,3.07
			l-0.14,0.19l-0.24,0.01c-10.63,0.44-18.5,6.33-20.53,8l5.27,3.18l-4.67,2.74c7.85,6.43,25.26,5.86,25.43,5.85L984.02-92.25z"/>
	</g>
	<g>
		
			<rect x="968.92" y="-106.41" transform="matrix(0.7597 -0.6503 0.6503 0.7597 302.3277 606.2496)" class="st1" width="4.94" height="1"/>
	</g>
	<g>
		
			<rect x="970.77" y="-108.26" transform="matrix(0.6969 -0.7172 0.7172 0.6969 370.2634 664.4811)" class="st1" width="1" height="4.9"/>
	</g>
	<g>
		<circle class="st1" cx="970.02" cy="-98.57" r="0.94"/>
	</g>
	<g>
		<circle class="st1" cx="977.08" cy="-98.57" r="0.94"/>
	</g>
	<g>
		<circle class="st1" cx="984.13" cy="-98.57" r="0.94"/>
	</g>
	<g>
		<circle class="st1" cx="991.19" cy="-98.57" r="0.94"/>
	</g>
	<g>
		<circle class="st1" cx="998.24" cy="-98.57" r="0.94"/>
	</g>
	<g>
		<circle class="st1" cx="1005.3" cy="-98.57" r="0.94"/>
	</g>
	<g>
		<circle class="st1" cx="966.1" cy="-95.1" r="0.94"/>
	</g>
	<g>
		<circle class="st1" cx="973.15" cy="-95.1" r="0.94"/>
	</g>
	<g>
		<circle class="st1" cx="980.21" cy="-95.1" r="0.94"/>
	</g>
	<g>
		<circle class="st1" cx="987.26" cy="-95.1" r="0.94"/>
	</g>
	<g>
		<circle class="st1" cx="994.32" cy="-95.1" r="0.94"/>
	</g>
	<g>
		<circle class="st1" cx="1001.37" cy="-95.1" r="0.94"/>
	</g>
	<g>
		<path class="st1" d="M1010.1-70.7l-25.74,0.74c-0.53-1.99-2.32-3.46-4.48-3.46h-0.99h-0.88h-8.51c-0.55,0-1,0.45-1,1s0.45,1,1,1
			h8.51v1.65h-8.51c-0.55,0-1,0.45-1,1s0.45,1,1,1h8.51v1.65h-8.51c-0.55,0-1,0.45-1,1s0.45,1,1,1h8.51h0.88h0.99
			c2.16,0,3.95-1.47,4.48-3.46l25.74,0.74c1.07,0,1.93-0.86,1.93-1.93S1011.17-70.7,1010.1-70.7z"/>
	</g>
	<g>
		<path class="st1" d="M1011.26-135.91l-19.08,0.55c-1.03-1.22-3.78-2.82-11.1-2.94c-9.73-0.16-12.09,3.58-12.62,4.88
			c-0.09,0.21,0.07,0.44,0.29,0.44h0.73l30.84,0.61h0l10.94,0.32c1.07,0,1.93-0.86,1.93-1.93S1012.33-135.91,1011.26-135.91z"/>
	</g>
</g>
</svg>
